<svg xmlns="http://www.w3.org/2000/svg" viewBox="-50 -50 100 100" width="100" height="100" role="img" aria-label="Leurda">
<defs><radialGradient id="leafA" cx="30%" cy="24%" r="82%"><stop stop-color="#5aaa4a"/><stop offset=".4" stop-color="#3a8832"/><stop offset="1" stop-color="#245420"/></radialGradient><radialGradient id="leafB" cx="30%" cy="24%" r="82%"><stop stop-color="#4a9840"/><stop offset=".42" stop-color="#2a7428"/><stop offset="1" stop-color="#1a4818"/></radialGradient><radialGradient id="leafYoung"><stop stop-color="#7acc6a"/><stop offset=".1" stop-color="#3a8832"/></radialGradient><radialGradient id="fruitRed" cx="30%" cy="24%"><stop stop-color="#ff9b83"/><stop offset=".35" stop-color="#e34839"/><stop offset="1" stop-color="#6d2026"/></radialGradient><radialGradient id="fruitGreen" cx="30%" cy="24%"><stop stop-color="#b6dc79"/><stop offset=".4" stop-color="#5e9849"/><stop offset="1" stop-color="#264a30"/></radialGradient><radialGradient id="fruitOrange"><stop stop-color="#ffd376"/><stop offset=".42" stop-color="#e78934"/><stop offset="1" stop-color="#7a321f"/></radialGradient><radialGradient id="fruitPurple"><stop stop-color="#c498ca"/><stop offset=".42" stop-color="#70467e"/><stop offset="1" stop-color="#2a193d"/></radialGradient><radialGradient id="headGreen"><stop stop-color="#a3c77c"/><stop offset="1" stop-color="#456d43"/></radialGradient><radialGradient id="headCream"><stop stop-color="#fffcec"/><stop offset="1" stop-color="#b8aa7b"/></radialGradient><filter id="depth" x="-24%" y="-24%" width="160%" height="170%"><feDropShadow dx="1" dy="2" stdDeviation="1.25" flood-color="#132315" flood-opacity=".38"/></filter></defs>
<g filter="url(#depth)" style="isolation:isolate"><ellipse cy="4" rx="28" ry="23" fill="#122415" opacity=".2"/>
<g transform="rotate(-30)"><path d="M0 5 C-8 0 -15 -10 -14 -22 C-13 -30 -6 -34 0 -36 C6 -34 13 -30 14 -22 C15 -10 8 0 0 5Z" fill="url(#leafA)" stroke="#245420" stroke-width=".8" stroke-linejoin="round"/><path d="M0 4 C0.5 -8 -0.5 -20 0 -33" fill="none" stroke="#d8ffb0" stroke-width=".7" opacity=".6"/></g>
<g transform="rotate(20)"><path d="M0 5 C-8 0 -15 -10 -14 -22 C-13 -30 -6 -34 0 -36 C6 -34 13 -30 14 -22 C15 -10 8 0 0 5Z" fill="url(#leafB)" stroke="#245420" stroke-width=".8" stroke-linejoin="round"/><path d="M0 4 C0.5 -8 -0.5 -20 0 -33" fill="none" stroke="#d8ffb0" stroke-width=".7" opacity=".6"/></g>
<g transform="rotate(70)"><path d="M0 5 C-8 0 -15 -10 -14 -22 C-13 -30 -6 -34 0 -36 C6 -34 13 -30 14 -22 C15 -10 8 0 0 5Z" fill="url(#leafA)" stroke="#245420" stroke-width=".8" stroke-linejoin="round"/><path d="M0 4 C0.5 -8 -0.5 -20 0 -33" fill="none" stroke="#d8ffb0" stroke-width=".7" opacity=".6"/></g>
<g transform="rotate(130)"><path d="M0 5 C-8 0 -14 -8 -13 -20 C-12 -28 -6 -32 0 -34 C6 -32 12 -28 13 -20 C14 -8 8 0 0 5Z" fill="url(#leafB)" stroke="#245420" stroke-width=".8" stroke-linejoin="round"/><path d="M0 4 C0.5 -8 -0.5 -18 0 -31" fill="none" stroke="#d8ffb0" stroke-width=".7" opacity=".6"/></g>
<g transform="rotate(190)"><path d="M0 5 C-8 0 -14 -8 -13 -20 C-12 -28 -6 -32 0 -34 C6 -32 12 -28 13 -20 C14 -8 8 0 0 5Z" fill="url(#leafA)" stroke="#245420" stroke-width=".8" stroke-linejoin="round"/><path d="M0 4 C0.5 -8 -0.5 -18 0 -31" fill="none" stroke="#d8ffb0" stroke-width=".7" opacity=".6"/></g>
<path d="M0 5 L0 -30" stroke="#2a5a24" stroke-width="1" fill="none"/>
<g transform="translate(0 -30)">
<circle cx="0" cy="-4" r="1.8" fill="white" opacity=".9"/>
<circle cx="3.4" cy="-2" r="1.8" fill="white" opacity=".9"/>
<circle cx="3.4" cy="2" r="1.8" fill="white" opacity=".9"/>
<circle cx="0" cy="4" r="1.8" fill="white" opacity=".9"/>
<circle cx="-3.4" cy="2" r="1.8" fill="white" opacity=".9"/>
<circle cx="-3.4" cy="-2" r="1.8" fill="white" opacity=".9"/>
<circle cx="0" cy="0" r="1.5" fill="#e0ffe0" opacity=".8"/>
</g>
</g>
</svg>
