<svg xmlns="http://www.w3.org/2000/svg" viewBox="-50 -50 100 100" width="100" height="100" role="img" aria-label="physalis">
<circle cx="0" cy="0" r="46" fill="#6b4e2a" opacity="0.18"/>
<ellipse cx="3.36" cy="4.2" rx="38.64" ry="34.44" fill="rgba(0,0,0,.15)"/>
<g transform="rotate(7)"><path d="M0 0 Q 7.5 -3.7 9.4 -9.4 Q 2.8 -11.2 10.3 -16.9 Q 1.9 -18.7 8.4 -26.2 Q 0.9 -28.1 0 -37.5 Q -0.9 -28.1 -8.4 -26.2 Q -1.9 -18.7 -10.3 -16.9 Q -2.8 -11.2 -9.4 -9.4 Q -7.5 -3.7 0 0 Z" fill="#c8883a"/></g>
<g transform="rotate(55)"><path d="M0 0 Q 6.9 -3.4 8.6 -8.6 Q 2.6 -10.3 9.4 -15.5 Q 1.7 -17.2 7.7 -24.1 Q 0.9 -25.8 0 -34.4 Q -0.9 -25.8 -7.7 -24.1 Q -1.7 -17.2 -9.4 -15.5 Q -2.6 -10.3 -8.6 -8.6 Q -6.9 -3.4 0 0 Z" fill="#a8602a"/></g>
<g transform="rotate(103)"><path d="M0 0 Q 6.8 -3.4 8.5 -8.5 Q 2.5 -10.2 9.3 -15.3 Q 1.7 -17 7.6 -23.8 Q 0.8 -25.5 0 -34 Q -0.8 -25.5 -7.6 -23.8 Q -1.7 -17 -9.3 -15.3 Q -2.5 -10.2 -8.5 -8.5 Q -6.8 -3.4 0 0 Z" fill="#c8883a"/></g>
<g transform="rotate(152)"><path d="M0 0 Q 7.9 -3.9 9.8 -9.8 Q 2.9 -11.8 10.8 -17.7 Q 2 -19.7 8.9 -27.6 Q 1 -29.5 0 -39.4 Q -1 -29.5 -8.9 -27.6 Q -2 -19.7 -10.8 -17.7 Q -2.9 -11.8 -9.8 -9.8 Q -7.9 -3.9 0 0 Z" fill="#a8602a"/></g>
<g transform="rotate(200)"><path d="M0 0 Q 6.8 -3.4 8.4 -8.4 Q 2.5 -10.1 9.3 -15.2 Q 1.7 -16.9 7.6 -23.7 Q 0.8 -25.5 0 -33.8 Q -0.8 -25.5 -7.6 -23.7 Q -1.7 -16.9 -9.3 -15.2 Q -2.5 -10.1 -8.4 -8.4 Q -6.8 -3.4 0 0 Z" fill="#c8883a"/></g>
<g transform="rotate(248)"><path d="M0 0 Q 7.5 -3.8 9.7 -9.7 Q 2.9 -11.6 10.7 -17.4 Q 1.9 -19.4 8.7 -27.1 Q 0.97 -28.9 0 -38.7 Q -0.97 -28.9 -8.7 -27.1 Q -1.9 -19.4 -10.7 -17.4 Q -2.9 -11.6 -9.7 -9.7 Q -7.5 -3.8 0 0 Z" fill="#a8602a"/></g>
<g transform="rotate(298)"><path d="M0 0 Q 7 -3.5 8.8 -8.8 Q 2.6 -10.5 9.6 -15.8 Q 1.8 -17.6 7.9 -24.6 Q 0.9 -26.4 0 -35.2 Q -0.9 -26.4 -7.9 -24.6 Q -1.8 -17.6 -9.6 -15.8 Q -2.6 -10.5 -8.8 -8.8 Q -7 -3.5 0 0 Z" fill="#c8883a"/></g>
<g transform="rotate(345)"><path d="M0 0 Q 7.7 -3.8 9.6 -9.6 Q 2.9 -11.5 10.6 -17.3 Q 1.9 -19.2 8.6 -26.9 Q 0.96 -28.8 0 -38.4 Q -0.96 -28.8 -8.6 -26.9 Q -1.9 -19.2 -10.6 -17.3 Q -2.9 -11.5 -9.6 -9.6 Q -7.7 -3.8 0 0 Z" fill="#a8602a"/></g>
<circle cx="19" cy="9" r="7" fill="#e89030"/>
<circle cx="17" cy="7" r="2.5" fill="rgba(255,255,255,.5)"/>
<circle cx="-8.5" cy="-7.8" r="8" fill="#e89030"/>
<circle cx="-10.8" cy="-10" r="2.8" fill="rgba(255,255,255,.5)"/>
</svg>
