<svg xmlns="http://www.w3.org/2000/svg" viewBox="-50 -50 100 100" width="100" height="100" role="img" aria-label="Radicchio">
<defs><radialGradient id="leafA" cx="30%" cy="24%" r="82%"><stop stop-color="#c699a9"/><stop offset=".4" stop-color="#9c4f6a"/><stop offset="1" stop-color="#613142"/></radialGradient><radialGradient id="leafB" cx="30%" cy="24%" r="82%"><stop stop-color="#a68293"/><stop offset=".42" stop-color="#6f3550"/><stop offset="1" stop-color="#432030"/></radialGradient><radialGradient id="leafYoung"><stop stop-color="#d7b9c3"/><stop offset="1" stop-color="#9c4f6a"/></radialGradient><radialGradient id="fruitRed" cx="30%" cy="24%"><stop stop-color="#ff9b83"/><stop offset=".35" stop-color="#b85a78"/><stop offset="1" stop-color="#6d2026"/></radialGradient><radialGradient id="fruitGreen" cx="30%" cy="24%"><stop stop-color="#b6dc79"/><stop offset=".4" stop-color="#5e9849"/><stop offset="1" stop-color="#264a30"/></radialGradient><radialGradient id="fruitOrange"><stop stop-color="#ffd376"/><stop offset=".42" stop-color="#e78934"/><stop offset="1" stop-color="#7a321f"/></radialGradient><radialGradient id="fruitPurple"><stop stop-color="#c498ca"/><stop offset=".42" stop-color="#70467e"/><stop offset="1" stop-color="#2a193d"/></radialGradient><radialGradient id="headGreen"><stop stop-color="#a3c77c"/><stop offset="1" stop-color="#456d43"/></radialGradient><radialGradient id="headCream"><stop stop-color="#fffcec"/><stop offset="1" stop-color="#b8aa7b"/></radialGradient><filter id="depth" x="-24%" y="-24%" width="160%" height="170%"><feDropShadow dx="1" dy="2" stdDeviation="1.25" flood-color="#132315" flood-opacity=".38"/></filter></defs>
<g filter="url(#depth)" style="isolation:isolate"><ellipse cy="4" rx="38" ry="33" fill="#122415" opacity=".2"/><g transform="rotate(29.727272727272727)"><path d="M0 0 C10.234 -2.68 15.5015 -11.39 12.340999999999998 -17.42 C9.632 -24.119999999999997 4.515 -30.82 0 -33.5 C-4.515 -30.82 -9.632 -24.119999999999997 -12.340999999999998 -17.42 C-15.5015 -11.39 -10.234 -2.68 0 0Z" fill="url(#leafB)" stroke="#294f31" stroke-width=".72" stroke-linejoin="round"/><path d="M0 -1 C1 -11.39 -1 -22.11 0 -30.150000000000002" fill="none" stroke="#d8efb2" stroke-width=".65" opacity=".58"/><path d="M0 -14.07 L5.718999999999999 -18.425 M0 -19.43 L-4.816 -23.45" stroke="#d8efb2" stroke-width=".38" opacity=".38"/></g><g transform="rotate(68.45454545454545)"><path d="M0 0 C10.234 -2.8000000000000003 15.5015 -11.9 12.340999999999998 -18.2 C9.632 -25.2 4.515 -32.2 0 -35 C-4.515 -32.2 -9.632 -25.2 -12.340999999999998 -18.2 C-15.5015 -11.9 -10.234 -2.8000000000000003 0 0Z" fill="url(#leafA)" stroke="#294f31" stroke-width=".72" stroke-linejoin="round"/><path d="M0 -1 C1 -11.9 -1 -23.1 0 -31.5" fill="none" stroke="#d8efb2" stroke-width=".65" opacity=".58"/><path d="M0 -14.7 L5.718999999999999 -19.25 M0 -20.299999999999997 L-4.816 -24.5" stroke="#d8efb2" stroke-width=".38" opacity=".38"/></g><g transform="rotate(95.18181818181819)"><path d="M0 0 C10.234 -2.92 15.5015 -12.41 12.340999999999998 -18.98 C9.632 -26.279999999999998 4.515 -33.58 0 -36.5 C-4.515 -33.58 -9.632 -26.279999999999998 -12.340999999999998 -18.98 C-15.5015 -12.41 -10.234 -2.92 0 0Z" fill="url(#leafB)" stroke="#294f31" stroke-width=".72" stroke-linejoin="round"/><path d="M0 -1 C1 -12.41 -1 -24.09 0 -32.85" fill="none" stroke="#d8efb2" stroke-width=".65" opacity=".58"/><path d="M0 -15.33 L5.718999999999999 -20.075000000000003 M0 -21.169999999999998 L-4.816 -25.549999999999997" stroke="#d8efb2" stroke-width=".38" opacity=".38"/></g><g transform="rotate(133.9090909090909)"><path d="M0 0 C10.234 -2.68 15.5015 -11.39 12.340999999999998 -17.42 C9.632 -24.119999999999997 4.515 -30.82 0 -33.5 C-4.515 -30.82 -9.632 -24.119999999999997 -12.340999999999998 -17.42 C-15.5015 -11.39 -10.234 -2.68 0 0Z" fill="url(#leafA)" stroke="#294f31" stroke-width=".72" stroke-linejoin="round"/><path d="M0 -1 C1 -11.39 -1 -22.11 0 -30.150000000000002" fill="none" stroke="#d8efb2" stroke-width=".65" opacity=".58"/><path d="M0 -14.07 L5.718999999999999 -18.425 M0 -19.43 L-4.816 -23.45" stroke="#d8efb2" stroke-width=".38" opacity=".38"/></g><g transform="rotate(160.63636363636363)"><path d="M0 0 C10.234 -2.8000000000000003 15.5015 -11.9 12.340999999999998 -18.2 C9.632 -25.2 4.515 -32.2 0 -35 C-4.515 -32.2 -9.632 -25.2 -12.340999999999998 -18.2 C-15.5015 -11.9 -10.234 -2.8000000000000003 0 0Z" fill="url(#leafB)" stroke="#294f31" stroke-width=".72" stroke-linejoin="round"/><path d="M0 -1 C1 -11.9 -1 -23.1 0 -31.5" fill="none" stroke="#d8efb2" stroke-width=".65" opacity=".58"/><path d="M0 -14.7 L5.718999999999999 -19.25 M0 -20.299999999999997 L-4.816 -24.5" stroke="#d8efb2" stroke-width=".38" opacity=".38"/></g><g transform="rotate(199.36363636363635)"><path d="M0 0 C10.234 -2.92 15.5015 -12.41 12.340999999999998 -18.98 C9.632 -26.279999999999998 4.515 -33.58 0 -36.5 C-4.515 -33.58 -9.632 -26.279999999999998 -12.340999999999998 -18.98 C-15.5015 -12.41 -10.234 -2.92 0 0Z" fill="url(#leafA)" stroke="#294f31" stroke-width=".72" stroke-linejoin="round"/><path d="M0 -1 C1 -12.41 -1 -24.09 0 -32.85" fill="none" stroke="#d8efb2" stroke-width=".65" opacity=".58"/><path d="M0 -15.33 L5.718999999999999 -20.075000000000003 M0 -21.169999999999998 L-4.816 -25.549999999999997" stroke="#d8efb2" stroke-width=".38" opacity=".38"/></g><g transform="rotate(226.0909090909091)"><path d="M0 0 C10.234 -2.68 15.5015 -11.39 12.340999999999998 -17.42 C9.632 -24.119999999999997 4.515 -30.82 0 -33.5 C-4.515 -30.82 -9.632 -24.119999999999997 -12.340999999999998 -17.42 C-15.5015 -11.39 -10.234 -2.68 0 0Z" fill="url(#leafB)" stroke="#294f31" stroke-width=".72" stroke-linejoin="round"/><path d="M0 -1 C1 -11.39 -1 -22.11 0 -30.150000000000002" fill="none" stroke="#d8efb2" stroke-width=".65" opacity=".58"/><path d="M0 -14.07 L5.718999999999999 -18.425 M0 -19.43 L-4.816 -23.45" stroke="#d8efb2" stroke-width=".38" opacity=".38"/></g><g transform="rotate(264.8181818181818)"><path d="M0 0 C10.234 -2.8000000000000003 15.5015 -11.9 12.340999999999998 -18.2 C9.632 -25.2 4.515 -32.2 0 -35 C-4.515 -32.2 -9.632 -25.2 -12.340999999999998 -18.2 C-15.5015 -11.9 -10.234 -2.8000000000000003 0 0Z" fill="url(#leafA)" stroke="#294f31" stroke-width=".72" stroke-linejoin="round"/><path d="M0 -1 C1 -11.9 -1 -23.1 0 -31.5" fill="none" stroke="#d8efb2" stroke-width=".65" opacity=".58"/><path d="M0 -14.7 L5.718999999999999 -19.25 M0 -20.299999999999997 L-4.816 -24.5" stroke="#d8efb2" stroke-width=".38" opacity=".38"/></g><g transform="rotate(291.54545454545456)"><path d="M0 0 C10.234 -2.92 15.5015 -12.41 12.340999999999998 -18.98 C9.632 -26.279999999999998 4.515 -33.58 0 -36.5 C-4.515 -33.58 -9.632 -26.279999999999998 -12.340999999999998 -18.98 C-15.5015 -12.41 -10.234 -2.92 0 0Z" fill="url(#leafB)" stroke="#294f31" stroke-width=".72" stroke-linejoin="round"/><path d="M0 -1 C1 -12.41 -1 -24.09 0 -32.85" fill="none" stroke="#d8efb2" stroke-width=".65" opacity=".58"/><path d="M0 -15.33 L5.718999999999999 -20.075000000000003 M0 -21.169999999999998 L-4.816 -25.549999999999997" stroke="#d8efb2" stroke-width=".38" opacity=".38"/></g><g transform="rotate(330.2727272727273)"><path d="M0 0 C10.234 -2.68 15.5015 -11.39 12.340999999999998 -17.42 C9.632 -24.119999999999997 4.515 -30.82 0 -33.5 C-4.515 -30.82 -9.632 -24.119999999999997 -12.340999999999998 -17.42 C-15.5015 -11.39 -10.234 -2.68 0 0Z" fill="url(#leafA)" stroke="#294f31" stroke-width=".72" stroke-linejoin="round"/><path d="M0 -1 C1 -11.39 -1 -22.11 0 -30.150000000000002" fill="none" stroke="#d8efb2" stroke-width=".65" opacity=".58"/><path d="M0 -14.07 L5.718999999999999 -18.425 M0 -19.43 L-4.816 -23.45" stroke="#d8efb2" stroke-width=".38" opacity=".38"/></g><g transform="rotate(357)"><path d="M0 0 C10.234 -2.8000000000000003 15.5015 -11.9 12.340999999999998 -18.2 C9.632 -25.2 4.515 -32.2 0 -35 C-4.515 -32.2 -9.632 -25.2 -12.340999999999998 -18.2 C-15.5015 -11.9 -10.234 -2.8000000000000003 0 0Z" fill="url(#leafB)" stroke="#294f31" stroke-width=".72" stroke-linejoin="round"/><path d="M0 -1 C1 -11.9 -1 -23.1 0 -31.5" fill="none" stroke="#d8efb2" stroke-width=".65" opacity=".58"/><path d="M0 -14.7 L5.718999999999999 -19.25 M0 -20.299999999999997 L-4.816 -24.5" stroke="#d8efb2" stroke-width=".38" opacity=".38"/></g><g transform="rotate(19.5)"><path d="M0 0 C7.3100000000000005 -1.8800000000000001 11.0725 -7.99 8.815 -12.22 C6.88 -16.919999999999998 3.225 -21.62 0 -23.5 C-3.225 -21.62 -6.88 -16.919999999999998 -8.815 -12.22 C-11.0725 -7.99 -7.3100000000000005 -1.8800000000000001 0 0Z" fill="url(#leafB)" stroke="#294f31" stroke-width=".72" stroke-linejoin="round"/><path d="M0 -1 C1 -7.99 -1 -15.510000000000002 0 -21.150000000000002" fill="none" stroke="#d8efb2" stroke-width=".65" opacity=".58"/><path d="M0 -9.87 L4.085 -12.925 M0 -13.629999999999999 L-3.44 -16.45" stroke="#d8efb2" stroke-width=".38" opacity=".38"/></g><g transform="rotate(70.5)"><path d="M0 0 C7.3100000000000005 -2 11.0725 -8.5 8.815 -13 C6.88 -18 3.225 -23 0 -25 C-3.225 -23 -6.88 -18 -8.815 -13 C-11.0725 -8.5 -7.3100000000000005 -2 0 0Z" fill="url(#leafA)" stroke="#294f31" stroke-width=".72" stroke-linejoin="round"/><path d="M0 -1 C1 -8.5 -1 -16.5 0 -22.5" fill="none" stroke="#d8efb2" stroke-width=".65" opacity=".58"/><path d="M0 -10.5 L4.085 -13.750000000000002 M0 -14.499999999999998 L-3.44 -17.5" stroke="#d8efb2" stroke-width=".38" opacity=".38"/></g><g transform="rotate(109.5)"><path d="M0 0 C7.3100000000000005 -2.12 11.0725 -9.01 8.815 -13.780000000000001 C6.88 -19.08 3.225 -24.380000000000003 0 -26.5 C-3.225 -24.380000000000003 -6.88 -19.08 -8.815 -13.780000000000001 C-11.0725 -9.01 -7.3100000000000005 -2.12 0 0Z" fill="url(#leafB)" stroke="#294f31" stroke-width=".72" stroke-linejoin="round"/><path d="M0 -1 C1 -9.01 -1 -17.490000000000002 0 -23.85" fill="none" stroke="#d8efb2" stroke-width=".65" opacity=".58"/><path d="M0 -11.129999999999999 L4.085 -14.575000000000001 M0 -15.37 L-3.44 -18.549999999999997" stroke="#d8efb2" stroke-width=".38" opacity=".38"/></g><g transform="rotate(160.5)"><path d="M0 0 C7.3100000000000005 -1.8800000000000001 11.0725 -7.99 8.815 -12.22 C6.88 -16.919999999999998 3.225 -21.62 0 -23.5 C-3.225 -21.62 -6.88 -16.919999999999998 -8.815 -12.22 C-11.0725 -7.99 -7.3100000000000005 -1.8800000000000001 0 0Z" fill="url(#leafA)" stroke="#294f31" stroke-width=".72" stroke-linejoin="round"/><path d="M0 -1 C1 -7.99 -1 -15.510000000000002 0 -21.150000000000002" fill="none" stroke="#d8efb2" stroke-width=".65" opacity=".58"/><path d="M0 -9.87 L4.085 -12.925 M0 -13.629999999999999 L-3.44 -16.45" stroke="#d8efb2" stroke-width=".38" opacity=".38"/></g><g transform="rotate(199.5)"><path d="M0 0 C7.3100000000000005 -2 11.0725 -8.5 8.815 -13 C6.88 -18 3.225 -23 0 -25 C-3.225 -23 -6.88 -18 -8.815 -13 C-11.0725 -8.5 -7.3100000000000005 -2 0 0Z" fill="url(#leafB)" stroke="#294f31" stroke-width=".72" stroke-linejoin="round"/><path d="M0 -1 C1 -8.5 -1 -16.5 0 -22.5" fill="none" stroke="#d8efb2" stroke-width=".65" opacity=".58"/><path d="M0 -10.5 L4.085 -13.750000000000002 M0 -14.499999999999998 L-3.44 -17.5" stroke="#d8efb2" stroke-width=".38" opacity=".38"/></g><g transform="rotate(250.5)"><path d="M0 0 C7.3100000000000005 -2.12 11.0725 -9.01 8.815 -13.780000000000001 C6.88 -19.08 3.225 -24.380000000000003 0 -26.5 C-3.225 -24.380000000000003 -6.88 -19.08 -8.815 -13.780000000000001 C-11.0725 -9.01 -7.3100000000000005 -2.12 0 0Z" fill="url(#leafA)" stroke="#294f31" stroke-width=".72" stroke-linejoin="round"/><path d="M0 -1 C1 -9.01 -1 -17.490000000000002 0 -23.85" fill="none" stroke="#d8efb2" stroke-width=".65" opacity=".58"/><path d="M0 -11.129999999999999 L4.085 -14.575000000000001 M0 -15.37 L-3.44 -18.549999999999997" stroke="#d8efb2" stroke-width=".38" opacity=".38"/></g><g transform="rotate(289.5)"><path d="M0 0 C7.3100000000000005 -1.8800000000000001 11.0725 -7.99 8.815 -12.22 C6.88 -16.919999999999998 3.225 -21.62 0 -23.5 C-3.225 -21.62 -6.88 -16.919999999999998 -8.815 -12.22 C-11.0725 -7.99 -7.3100000000000005 -1.8800000000000001 0 0Z" fill="url(#leafB)" stroke="#294f31" stroke-width=".72" stroke-linejoin="round"/><path d="M0 -1 C1 -7.99 -1 -15.510000000000002 0 -21.150000000000002" fill="none" stroke="#d8efb2" stroke-width=".65" opacity=".58"/><path d="M0 -9.87 L4.085 -12.925 M0 -13.629999999999999 L-3.44 -16.45" stroke="#d8efb2" stroke-width=".38" opacity=".38"/></g><g transform="rotate(340.5)"><path d="M0 0 C7.3100000000000005 -2 11.0725 -8.5 8.815 -13 C6.88 -18 3.225 -23 0 -25 C-3.225 -23 -6.88 -18 -8.815 -13 C-11.0725 -8.5 -7.3100000000000005 -2 0 0Z" fill="url(#leafA)" stroke="#294f31" stroke-width=".72" stroke-linejoin="round"/><path d="M0 -1 C1 -8.5 -1 -16.5 0 -22.5" fill="none" stroke="#d8efb2" stroke-width=".65" opacity=".58"/><path d="M0 -10.5 L4.085 -13.750000000000002 M0 -14.499999999999998 L-3.44 -17.5" stroke="#d8efb2" stroke-width=".38" opacity=".38"/></g><g transform="rotate(-3)"><path d="M0 0 C4.386 -1.08 6.6435 -4.590000000000001 5.289 -7.0200000000000005 C4.128 -9.719999999999999 1.935 -12.42 0 -13.5 C-1.935 -12.42 -4.128 -9.719999999999999 -5.289 -7.0200000000000005 C-6.6435 -4.590000000000001 -4.386 -1.08 0 0Z" fill="url(#leafB)" stroke="#294f31" stroke-width=".72" stroke-linejoin="round"/><path d="M0 -1 C1 -4.590000000000001 -1 -8.91 0 -12.15" fill="none" stroke="#d8efb2" stroke-width=".65" opacity=".58"/><path d="M0 -5.67 L2.451 -7.425000000000001 M0 -7.829999999999999 L-2.064 -9.45" stroke="#d8efb2" stroke-width=".38" opacity=".38"/></g><g transform="rotate(75)"><path d="M0 0 C4.386 -1.2 6.6435 -5.1000000000000005 5.289 -7.800000000000001 C4.128 -10.799999999999999 1.935 -13.8 0 -15 C-1.935 -13.8 -4.128 -10.799999999999999 -5.289 -7.800000000000001 C-6.6435 -5.1000000000000005 -4.386 -1.2 0 0Z" fill="url(#leafA)" stroke="#294f31" stroke-width=".72" stroke-linejoin="round"/><path d="M0 -1 C1 -5.1000000000000005 -1 -9.9 0 -13.5" fill="none" stroke="#d8efb2" stroke-width=".65" opacity=".58"/><path d="M0 -6.3 L2.451 -8.25 M0 -8.7 L-2.064 -10.5" stroke="#d8efb2" stroke-width=".38" opacity=".38"/></g><g transform="rotate(141)"><path d="M0 0 C4.386 -1.32 6.6435 -5.61 5.289 -8.58 C4.128 -11.879999999999999 1.935 -15.180000000000001 0 -16.5 C-1.935 -15.180000000000001 -4.128 -11.879999999999999 -5.289 -8.58 C-6.6435 -5.61 -4.386 -1.32 0 0Z" fill="url(#leafB)" stroke="#294f31" stroke-width=".72" stroke-linejoin="round"/><path d="M0 -1 C1 -5.61 -1 -10.89 0 -14.85" fill="none" stroke="#d8efb2" stroke-width=".65" opacity=".58"/><path d="M0 -6.93 L2.451 -9.075000000000001 M0 -9.569999999999999 L-2.064 -11.549999999999999" stroke="#d8efb2" stroke-width=".38" opacity=".38"/></g><g transform="rotate(219)"><path d="M0 0 C4.386 -1.08 6.6435 -4.590000000000001 5.289 -7.0200000000000005 C4.128 -9.719999999999999 1.935 -12.42 0 -13.5 C-1.935 -12.42 -4.128 -9.719999999999999 -5.289 -7.0200000000000005 C-6.6435 -4.590000000000001 -4.386 -1.08 0 0Z" fill="url(#leafA)" stroke="#294f31" stroke-width=".72" stroke-linejoin="round"/><path d="M0 -1 C1 -4.590000000000001 -1 -8.91 0 -12.15" fill="none" stroke="#d8efb2" stroke-width=".65" opacity=".58"/><path d="M0 -5.67 L2.451 -7.425000000000001 M0 -7.829999999999999 L-2.064 -9.45" stroke="#d8efb2" stroke-width=".38" opacity=".38"/></g><g transform="rotate(285)"><path d="M0 0 C4.386 -1.2 6.6435 -5.1000000000000005 5.289 -7.800000000000001 C4.128 -10.799999999999999 1.935 -13.8 0 -15 C-1.935 -13.8 -4.128 -10.799999999999999 -5.289 -7.800000000000001 C-6.6435 -5.1000000000000005 -4.386 -1.2 0 0Z" fill="url(#leafB)" stroke="#294f31" stroke-width=".72" stroke-linejoin="round"/><path d="M0 -1 C1 -5.1000000000000005 -1 -9.9 0 -13.5" fill="none" stroke="#d8efb2" stroke-width=".65" opacity=".58"/><path d="M0 -6.3 L2.451 -8.25 M0 -8.7 L-2.064 -10.5" stroke="#d8efb2" stroke-width=".38" opacity=".38"/></g></g>
</svg>
